<?xml version="1.0" encoding="UTF-8" standalone="no"?>
<svg
   xmlns:dc="http://purl.org/dc/elements/1.1/"
   xmlns:cc="http://creativecommons.org/ns#"
   xmlns:rdf="http://www.w3.org/1999/02/22-rdf-syntax-ns#"
   xmlns:svg="http://www.w3.org/2000/svg"
   xmlns="http://www.w3.org/2000/svg"
   xmlns:sodipodi="http://sodipodi.sourceforge.net/DTD/sodipodi-0.dtd"
   xmlns:inkscape="http://www.inkscape.org/namespaces/inkscape"
   width="200"
   height="120"
   viewBox="0 0 52.916668 31.749999"
   version="1.1"
   id="svg8"
   inkscape:version="1.0.1 (3bc2e813f5, 2020-09-07)"
   sodipodi:docname="coltech-01.svg"
   inkscape:export-filename="D:\Alex\OneDrive\02 Formación\03 Formación continua Tecmilenio\02 Certificado en Marketing Digital Virtual Live\Curso\Entregables\Actividad 2\Componentes\01 - El brief\Logo\Logo FortCheval v0.1.png"
   inkscape:export-xdpi="96"
   inkscape:export-ydpi="96">
  <defs
     id="defs2">
    <rect
       x="23.706667"
       y="169.33333"
       width="237.06667"
       height="30.48"
       id="rect895" />
    <rect
       x="23.706667"
       y="169.33333"
       width="237.06667"
       height="30.48"
       id="rect895-3" />
    <rect
       x="23.706667"
       y="169.33333"
       width="237.06667"
       height="30.48"
       id="rect848" />
    <rect
       x="23.706667"
       y="169.33333"
       width="237.06667"
       height="30.48"
       id="rect895-3-2" />
    <rect
       x="23.706667"
       y="169.33333"
       width="237.06667"
       height="30.48"
       id="rect1546" />
  </defs>
  <sodipodi:namedview
     id="base"
     pagecolor="#ffffff"
     bordercolor="#666666"
     borderopacity="1.0"
     inkscape:pageopacity="0.0"
     inkscape:pageshadow="2"
     inkscape:zoom="1.979899"
     inkscape:cx="150.74507"
     inkscape:cy="134.34078"
     inkscape:document-units="px"
     inkscape:current-layer="layer1"
     inkscape:document-rotation="0"
     showgrid="true"
     inkscape:window-width="1806"
     inkscape:window-height="847"
     inkscape:window-x="143"
     inkscape:window-y="120"
     inkscape:window-maximized="0"
     units="px">
    <inkscape:grid
       type="xygrid"
       id="grid38"
       spacingx="0.026458333"
       spacingy="0.026458333"
       originy="0"
       empspacing="4"
       dotted="false" />
  </sodipodi:namedview>
  <metadata
     id="metadata5">
    <rdf:RDF>
      <cc:Work
         rdf:about="">
        <dc:format>image/svg+xml</dc:format>
        <dc:type
           rdf:resource="http://purl.org/dc/dcmitype/StillImage" />
        <dc:title></dc:title>
      </cc:Work>
    </rdf:RDF>
  </metadata>
  <g
     inkscape:label="Capa 1"
     inkscape:groupmode="layer"
     id="layer1">
    <path
       style="fill:#ff0000;stroke:#fffc00;stroke-width:0.374904;stroke-linecap:butt;stroke-linejoin:miter;stroke-miterlimit:4;stroke-dasharray:none;stroke-opacity:1"
       d="m 16.807905,3.4305754 v 0.9304562 h 0.290575 l 2.324596,-0.465228 h 1.162296 l 2.034018,0.2326141 3.777454,1.1630703 4.64918,2.0935268 3.196311,2.0935264 3.196312,2.5587548 1.743442,1.16307 1.307582,0.232614 1.307582,0.116307 h 0.726435 l 0.87172,-0.116307 0.726439,-0.232614 0.72643,-0.465228 0.726435,-0.814149 0.145287,-0.348921 -0.871722,0.348921 -0.72643,0.116307 H 43.104835 L 41.942539,11.688375 40.925531,10.990532 40.344384,10.641611 39.036802,10.292691 37.72922,9.943769 39.036802,9.8274627 39.908523,9.5948483 40.780245,9.0133133 41.361392,8.2863938 41.942539,7.1524007 40.925531,7.7339356 39.61795,7.9665497 37.874507,8.0828565 36.276351,7.7339356 34.823482,7.1524007 l -0.87172,-0.5815355 -0.581148,-0.814149 1.162295,0.581535 1.307585,0.232614 h 0.871722 L 37.874507,6.1056369 38.891515,4.9425666 39.472663,3.8958036 40.053811,2.8490404 38.746232,3.4305754 36.712216,3.5468826 34.532909,3.1979614 31.917745,2.3838122 29.738442,1.5696626 27.559139,0.98812724 25.815697,0.87182015 h -1.888731 l -1.59815,0.11630709 -1.598157,0.34892116 -1.598156,0.8141498 -1.307585,0.6978422 -1.017013,0.581535 v 0.9304562 z"
       id="path902" />
    <text
       xml:space="preserve"
       id="text893"
       style="font-style:normal;font-variant:normal;font-weight:normal;font-stretch:normal;font-size:4.16997px;line-height:1.25;font-family:sans-serif;-inkscape-font-specification:'sans-serif, Normal';font-variant-ligatures:normal;font-variant-caps:normal;font-variant-numeric:normal;font-variant-east-asian:normal;white-space:pre;shape-inside:url(#rect895);fill:#000000;fill-opacity:1;stroke:none;"
       transform="matrix(0.62896674,0,0,0.6397495,-6.2302588,-81.340203)"><tspan
         x="23.707031"
         y="173.13837"><tspan
           style="font-style:normal;font-variant:normal;font-weight:normal;font-stretch:normal;font-size:4.16997px;font-family:sans-serif;-inkscape-font-specification:'sans-serif, Normal';font-variant-ligatures:normal;font-variant-caps:normal;font-variant-numeric:normal;font-variant-east-asian:normal">TECHNOLOGY WEB STORE</tspan></tspan></text>
    <path
       style="opacity:1;fill:#0000ff;stroke:#ffff00;stroke-width:0.374904;stroke-linecap:butt;stroke-linejoin:miter;stroke-miterlimit:4;stroke-dasharray:none;stroke-opacity:1"
       d="M 39.999332,12.55048 36.221873,9.7460901 32.734992,7.175401 27.795234,4.8384114 23.43663,3.436217 20.53089,3.2025182 17.915724,3.669916 H 17.625148 V 3.2025182 2.0340229 L 17.043996,0.63182838 H 16.753423 L 16.172271,1.800324 15.591119,2.5014211 V 1.800324 L 15.00997,0.86552763 H 14.719394 L 14.428818,1.3329258 14.138244,1.800324 13.847671,2.7351199 13.557097,3.669916 v 0.7010972 l -0.581148,0.4673982 -0.581148,0.7010968 -0.290573,0.4673981 v 0.4673978 l -0.290574,0.2336992 -0.871722,0.934796 V 8.3438966 L 7.4550473,14.186373 7.3097604,14.595347 c -0.2484972,0.208753 -0.3266222,0.487357 -0.4358609,0.759526 -0.00339,0.252932 0.1150561,0.482494 0.2905742,0.701102 l 0.5811474,0.467401 c 0.1706324,0.143265 0.2942713,0.294512 0.2905736,0.467396 0.2993127,0.163283 0.6966558,0.34843 1.1622949,0.35055 0.6466233,0.316286 1.1743484,0.247351 1.7434424,0.350548 l 0.871722,-0.2337 0.871721,-1.402195 1.162296,-0.701102 1.452875,-0.9348 0.871725,-0.7011 0.871725,-0.701096 0.871728,-0.233699 0.871723,-0.467399 0.581148,-0.467396 0.290574,-0.233701 2.034018,0.701097 1.162294,1.402194 0.581149,1.869603 v 0.7011 l -1.162298,1.168494 -0.290571,0.2337 -0.581149,0.934796 h 12.494676 11.913524 l -1.45287,-1.869593 -1.452869,-1.4022 -1.452868,-1.402199 z"
       id="path46"
       sodipodi:nodetypes="cccccccccccccccccccccccccccccccccccccccccccccccccccccccccccc" />
    <path
       style="fill:#ffff00;fill-opacity:1;stroke:none;stroke-width:0.0406224px;stroke-linecap:butt;stroke-linejoin:miter;stroke-opacity:1"
       d="m 13.593418,7.137862 -0.653791,0.2907673 -0.363218,0.232614 -0.145286,0.2907678 -0.145287,0.232614 -0.07264,0.2907673 -0.07264,0.1744609 h 0.217929 L 12.576415,8.533546 12.939633,8.3590855 13.157564,8.1846251 13.448138,7.8938574 13.593424,7.6030896 13.811355,7.137862 13.956642,6.9052474 Z"
       id="path930" />
    <path
       style="fill:#ffff00;stroke:none;stroke-width:0.0233526px;stroke-linecap:butt;stroke-linejoin:miter;stroke-opacity:1"
       d="m 12.455337,7.9073786 0.05933,0.052949 0.09888,0.035299 h 0.09888 0.03955 l 0.0791,-0.01765 0.0791,-0.0353 0.03955,-0.0353 0.05933,-0.070598 0.03955,-0.088247 V 7.6249868 l -0.01977,-0.088247 -0.03955,-0.052949 -0.03955,-0.052949 -0.177976,0.088247 -0.197751,0.1411962 -0.118651,0.2470924"
       id="path934" />
    <text
       xml:space="preserve"
       id="text893-7"
       style="font-style:normal;font-variant:normal;font-weight:bold;font-stretch:normal;font-size:10.5833px;line-height:1.25;font-family:sans-serif;-inkscape-font-specification:'sans-serif, Bold';font-variant-ligatures:normal;font-variant-caps:normal;font-variant-numeric:normal;font-variant-east-asian:normal;white-space:pre;shape-inside:url(#rect895-3-2);fill:#0000ff;fill-opacity:1;stroke:#ffff00;stroke-width:0.116695;stroke-miterlimit:4;stroke-dasharray:none;stroke-opacity:1;"
       transform="matrix(0.99214266,0,0,0.92355814,-23.814028,-138.66968)"><tspan
         x="23.707031"
         y="178.98945"><tspan>COLTECH</tspan></tspan></text>
  </g>
</svg>
