<?xml version="1.0" encoding="UTF-8" standalone="no"?>
<svg
   xmlns:dc="http://purl.org/dc/elements/1.1/"
   xmlns:cc="http://creativecommons.org/ns#"
   xmlns:rdf="http://www.w3.org/1999/02/22-rdf-syntax-ns#"
   xmlns:svg="http://www.w3.org/2000/svg"
   xmlns="http://www.w3.org/2000/svg"
   xmlns:sodipodi="http://sodipodi.sourceforge.net/DTD/sodipodi-0.dtd"
   xmlns:inkscape="http://www.inkscape.org/namespaces/inkscape"
   width="1122.5197"
   height="793.70081"
   viewBox="0 0 297 210"
   version="1.1"
   id="svg8"
   inkscape:version="1.0.1 (3bc2e813f5, 2020-09-07)"
   sodipodi:docname="coltech-02.svg"
   inkscape:export-filename="C:\Users\aizam\Documents\Bedu\proyecto\icons\coltech-02.png"
   inkscape:export-xdpi="96"
   inkscape:export-ydpi="96">
  <defs
     id="defs2">
    <rect
       x="23.706666"
       y="169.33333"
       width="237.06666"
       height="30.48"
       id="rect895" />
    <rect
       x="23.706667"
       y="169.33333"
       width="237.06667"
       height="30.48"
       id="rect895-3" />
    <rect
       x="23.706667"
       y="169.33333"
       width="237.06667"
       height="30.48"
       id="rect848" />
    <rect
       x="23.706667"
       y="169.33333"
       width="237.06667"
       height="30.48"
       id="rect895-3-2" />
    <rect
       x="23.706667"
       y="169.33333"
       width="237.06667"
       height="30.48"
       id="rect1546" />
  </defs>
  <sodipodi:namedview
     id="base"
     pagecolor="#ffffff"
     bordercolor="#666666"
     borderopacity="1.0"
     inkscape:pageopacity="0.0"
     inkscape:pageshadow="2"
     inkscape:zoom="0.98994949"
     inkscape:cx="651.71758"
     inkscape:cy="464.05584"
     inkscape:document-units="mm"
     inkscape:current-layer="layer1"
     inkscape:document-rotation="0"
     showgrid="true"
     inkscape:window-width="1806"
     inkscape:window-height="1032"
     inkscape:window-x="98"
     inkscape:window-y="0"
     inkscape:window-maximized="0"
     units="px">
    <inkscape:grid
       type="xygrid"
       id="grid38"
       spacingx="0.026458333"
       spacingy="0.026458333"
       originy="0"
       empspacing="4"
       dotted="false" />
  </sodipodi:namedview>
  <metadata
     id="metadata5">
    <rdf:RDF>
      <cc:Work
         rdf:about="">
        <dc:format>image/svg+xml</dc:format>
        <dc:type
           rdf:resource="http://purl.org/dc/dcmitype/StillImage" />
        <dc:title />
      </cc:Work>
    </rdf:RDF>
  </metadata>
  <g
     inkscape:label="Capa 1"
     inkscape:groupmode="layer"
     id="layer1">
    <path
       style="fill:#ff0000;stroke:#fffc00;stroke-width:2;stroke-linecap:butt;stroke-linejoin:miter;stroke-opacity:1;stroke-miterlimit:4;stroke-dasharray:none"
       d="m 112.56882,36.690167 v 5.535284 h 1.39006 l 11.12043,-2.767642 h 5.5602 l 9.73036,1.383821 18.07063,6.919105 22.24081,12.454389 15.29055,12.454388 15.29055,15.22203 8.3403,6.919105 6.25523,1.383821 6.25522,0.691911 h 3.47513 l 4.17015,-0.691911 3.47513,-1.383821 3.47512,-2.767642 3.47512,-4.843373 0.69503,-2.075731 -4.17015,2.075731 -3.47512,0.69191 h -4.86518 l -5.5602,-2.075731 -4.86518,-4.151463 -2.7801,-2.075731 -6.25523,-2.075732 -6.25522,-2.075731 6.25522,-0.69191 4.17015,-1.383821 4.17016,-3.459553 2.7801,-4.32444 2.7801,-6.746127 -4.86518,3.459552 -6.25522,1.383821 -8.34031,0.69191 -7.64527,-2.075731 -6.95025,-3.459552 -4.17015,-3.459553 -2.7801,-4.843373 5.5602,3.459552 6.25523,1.383821 h 4.17015 l 5.56019,-2.767642 4.86518,-6.919105 2.7801,-6.227194 2.7801,-6.227194 -6.25522,3.459552 -9.73035,0.691911 -10.42538,-2.075732 -12.51045,-4.843373 -10.42538,-4.843375 -10.42538,-3.459554 -8.3403,-0.691911 h -9.03533 l -7.64525,0.691911 -7.64528,2.075732 -7.64528,4.843376 -6.25524,4.151463 -4.8652,3.459552 v 5.535284 z"
       id="path902" />
    <text
       xml:space="preserve"
       id="text893"
       style="font-style:normal;font-variant:normal;font-weight:normal;font-stretch:normal;font-size:4.16997px;line-height:1.25;font-family:sans-serif;-inkscape-font-specification:'sans-serif, Normal';font-variant-ligatures:normal;font-variant-caps:normal;font-variant-numeric:normal;font-variant-east-asian:normal;white-space:pre;shape-inside:url(#rect895);fill:#000000;fill-opacity:1;stroke:none;"
       transform="matrix(3.0088586,0,0,3.8058694,2.3585826,-467.61113)"><tspan
         x="23.707031"
         y="173.13837"><tspan
           style="font-style:normal;font-variant:normal;font-weight:normal;font-stretch:normal;font-size:4.16997px;font-family:sans-serif;-inkscape-font-specification:'sans-serif, Normal';font-variant-ligatures:normal;font-variant-caps:normal;font-variant-numeric:normal;font-variant-east-asian:normal">TECHNOLOGY WEB STORE</tspan></tspan></text>
    <path
       style="opacity:1;fill:#0000ff;stroke:#ffff00;stroke-width:2;stroke-linecap:butt;stroke-linejoin:miter;stroke-opacity:1;stroke-miterlimit:4;stroke-dasharray:none"
       d="M 223.51225,90.94447 205.4416,74.261163 188.761,58.968135 165.13014,45.065382 l -20.85075,-8.341653 -13.90051,-1.390275 -12.51046,2.78055 h -1.39006 v -2.78055 -6.951377 l -2.78012,-8.341655 h -1.39005 l -2.78012,6.95138 -2.78012,4.170826 v -4.170826 l -2.78011,-5.561103 h -1.39006 l -1.39006,2.780551 -1.390053,2.780552 -1.39005,5.561101 -1.390051,5.561101 v 4.170827 l -2.7801,2.780551 -2.780101,4.170826 -1.39005,2.78055 v 2.780551 l -1.39005,1.390275 -4.170151,5.561102 v 4.170826 l -16.680603,34.756888 -0.695025,2.43299 c -1.188763,1.24187 -1.5625,2.89928 -2.085076,4.51842 -0.01616,1.50469 0.550406,2.87035 1.390051,4.17085 l 2.7801,2.78057 c 0.816274,0.85228 1.407739,1.75205 1.39005,2.78054 1.431855,0.97137 3.33267,2.07281 5.560201,2.08542 3.093322,1.88159 5.617858,1.47149 8.340302,2.08541 l 4.170151,-1.39028 4.17015,-8.34166 5.560202,-4.17085 6.950283,-5.56113 4.17017,-4.170839 4.17017,-4.170822 4.17018,-1.390275 4.17016,-2.780556 2.7801,-2.780541 1.39005,-1.390282 9.73036,4.170823 5.5602,8.341653 2.7801,11.122259 v 4.17085 l -5.56021,6.95137 -1.39004,1.39028 -2.78011,5.5611 h 59.77217 56.99206 l -6.95025,-11.12221 -6.95025,-8.34168 -6.95025,-8.341683 z"
       id="path46"
       sodipodi:nodetypes="cccccccccccccccccccccccccccccccccccccccccccccccccccccccccccc" />
    <path
       style="fill:#ffff00;fill-opacity:1;stroke:none;stroke-width:0.216708px;stroke-linecap:butt;stroke-linejoin:miter;stroke-opacity:1"
       d="m 97.191321,58.744812 -3.127614,1.729775 -1.737566,1.383822 -0.695019,1.729776 -0.695028,1.383821 -0.34751,1.729776 -0.34751,1.037866 h 1.042529 l 1.042538,-0.69191 1.737566,-1.037866 1.042538,-1.037866 1.390051,-1.729776 0.695025,-1.729777 1.042538,-2.767641 0.695025,-1.383822 z"
       id="path930" />
    <path
       style="fill:#ffff00;stroke:none;stroke-width:0.124579px;stroke-linecap:butt;stroke-linejoin:miter;stroke-opacity:1"
       d="m 91.746957,63.322668 0.283802,0.31499 0.473004,0.209993 h 0.473003 0.189201 l 0.378403,-0.104998 0.378402,-0.209992 0.189201,-0.209993 0.283802,-0.419987 0.189202,-0.524984 v -0.734976 l -0.0946,-0.524984 -0.189201,-0.314989 -0.189202,-0.314991 -0.851405,0.524983 -0.946006,0.839975 -0.567605,1.469953"
       id="path934" />
    <text
       xml:space="preserve"
       id="text893-7"
       style="font-style:normal;font-variant:normal;font-weight:bold;font-stretch:normal;font-size:10.5833px;line-height:1.25;font-family:sans-serif;-inkscape-font-specification:'sans-serif, Bold';font-variant-ligatures:normal;font-variant-caps:normal;font-variant-numeric:normal;font-variant-east-asian:normal;white-space:pre;shape-inside:url(#rect895-3-2);fill:#0000ff;fill-opacity:1;stroke:#ffff00;stroke-width:0.116695;stroke-miterlimit:4;stroke-dasharray:none;stroke-opacity:1;"
       transform="matrix(4.7462236,0,0,5.4942467,-81.758858,-808.66419)"><tspan
         x="23.707031"
         y="178.98945"><tspan>COLTECH</tspan></tspan></text>
  </g>
</svg>
